{"glyphs":{":":{"x_min":0,"x_max":272,"ha":272,"o":"m 157 479 q 211 479 232 417 l 232 398 q 232 352 169 329 l 156 329 q 82 340 82 406 q 97 479 157 479 z m 151 153 l 159 153 q 217 153 232 85 l 232 74 q 232 20 160 2 q 82 16 82 82 q 98 153 151 153 z"},"$":{"x_min":0,"x_max":495,"ha":495,"o":"m 304 103 q 352 138 352 190 l 352 209 q 352 271 304 301 z m 164 533 l 164 518 q 164 466 201 445 l 201 600 q 164 581 164 533 z m 248 821 l 257 821 q 294 821 304 772 l 304 722 q 341 719 401 665 q 427 639 427 622 l 427 610 q 427 573 377 565 q 355 565 319 605 q 306 616 304 617 l 304 422 q 386 392 425 318 q 455 262 455 210 q 455 64 305 -1 l 304 -1 l 304 -53 q 292 -102 252 -102 q 201 -91 201 -51 l 201 0 q 201 -6 187 -6 q 180 -6 169 -5 q 78 26 38 93 l 35 109 q 43 160 85 160 q 112 160 148 115 q 186 90 201 89 l 201 346 q 143 364 116 403 q 63 457 63 529 l 63 542 q 63 643 166 704 q 201 721 201 721 l 201 777 q 215 821 248 821 z"},"?":{"x_min":0,"x_max":479,"ha":479,"o":"m 257 714 q 352 714 428 632 q 481 564 481 485 q 481 386 392 309 q 312 265 312 183 q 305 132 260 132 q 211 143 211 178 l 211 193 q 211 316 339 395 q 379 435 379 491 q 379 561 305 603 q 272 613 252 613 q 179 613 138 536 l 125 471 q 103 443 79 443 q 28 454 28 493 q 28 600 133 679 q 197 714 257 714 z m 254 111 l 263 111 q 306 111 324 59 l 324 42 q 312 -18 256 -18 q 195 -4 195 45 q 195 100 254 111 z"},"<":{"x_min":0,"x_max":495,"ha":495,"o":"m 208 305 q 219 300 455 153 q 472 133 472 114 l 472 112 q 472 68 419 61 q 398 61 338 102 l 75 265 q 56 286 56 306 q 56 344 118 372 q 399 553 416 553 l 422 553 q 472 540 472 501 l 472 497 q 472 460 403 427 q 401 424 208 305 z"},"'":{"x_min":0,"x_max":169,"ha":169,"o":"m 101 770 q 150 757 150 721 q 139 555 113 555 l 99 551 q 59 551 55 625 l 45 716 q 56 770 101 770 z"},"=":{"x_min":0,"x_max":495,"ha":495,"o":"m 119 421 l 417 421 q 458 421 469 368 q 457 316 417 316 l 119 316 q 74 316 66 373 q 80 421 119 421 z m 119 259 l 417 259 q 469 249 469 204 q 458 154 417 154 l 115 154 q 75 154 67 208 q 67 248 119 259 z"},"a":{"x_min":0,"x_max":587,"ha":587,"o":"m 101 253 l 101 248 q 101 148 201 98 q 232 86 257 86 l 271 86 q 354 86 409 169 q 428 208 428 244 l 428 251 q 428 348 333 399 q 300 414 265 414 l 263 414 q 162 414 110 308 q 101 276 101 253 z m 429 41 q 369 -15 271 -15 l 257 -15 q 123 -15 33 120 q 0 186 0 251 q 0 399 145 485 q 206 514 265 514 q 415 514 502 368 q 529 308 529 244 l 529 33 q 529 -6 481 -15 l 478 -15 q 444 -15 428 24 l 428 30 z"},"L":{"x_min":0,"x_max":464,"ha":464,"o":"m 46 714 l 55 714 q 101 705 101 670 l 101 86 l 388 86 q 430 86 438 32 q 424 -15 388 -15 l 50 -15 q 9 -15 0 36 l 0 660 q 6 714 46 714 z"},"3":{"x_min":0,"x_max":466,"ha":466,"o":"m 231 714 q 321 714 385 634 q 421 585 421 526 l 421 519 q 421 436 364 386 q 451 323 451 210 q 451 93 341 17 q 284 -15 228 -15 l 223 -15 q 91 -15 18 121 q 0 171 0 211 q 0 250 52 259 q 94 259 101 209 q 101 138 176 96 q 202 86 228 86 q 301 86 339 164 q 348 187 348 203 l 348 217 q 348 286 271 324 l 209 338 q 182 358 182 383 l 182 385 q 182 434 247 434 q 276 434 309 475 q 322 502 322 524 q 322 575 271 604 q 253 613 230 613 q 171 613 146 550 q 140 486 126 486 q 113 471 92 471 q 42 482 42 517 l 42 526 q 42 630 146 692 q 186 712 231 714 z"},";":{"x_min":0,"x_max":272,"ha":272,"o":"m 145 467 q 199 467 220 404 l 220 386 q 220 339 157 316 l 144 316 q 70 328 70 393 q 84 467 145 467 z m 157 141 q 234 141 234 32 l 234 30 q 234 -71 112 -111 l 99 -111 q 62 -104 62 -73 l 62 -63 q 71 -27 105 -27 l 113 -29 q 143 -13 148 -13 q 150 -13 150 -14 l 160 -10 q 80 2 80 65 q 80 119 141 141 z"},"J":{"x_min":0,"x_max":477,"ha":477,"o":"m 413 717 l 419 717 q 458 717 467 669 l 467 217 q 467 92 351 17 q 295 -15 237 -15 l 228 -15 q 113 -15 36 96 q 0 155 0 220 q 11 269 46 269 l 54 269 q 104 269 104 197 q 106 163 147 118 q 187 87 233 87 q 326 87 360 184 q 365 201 365 219 l 365 671 q 374 717 413 717 z"},"V":{"x_min":0,"x_max":592,"ha":592,"o":"m 286 185 l 478 697 q 500 718 520 718 l 522 718 q 562 718 572 665 l 338 33 q 327 -15 287 -15 l 285 -15 q 240 -15 221 68 q 0 651 0 665 l 0 668 q 0 710 53 718 q 95 718 118 630 z"},"\"":{"x_min":0,"x_max":272,"ha":272,"o":"m 94 776 q 144 763 144 728 q 133 561 106 561 l 93 557 q 52 557 48 631 l 39 723 q 49 776 94 776 z m 212 776 q 250 776 264 726 q 248 565 233 565 q 225 557 211 557 l 209 557 q 167 557 167 637 l 158 727 q 158 767 212 776 z"},"7":{"x_min":0,"x_max":471,"ha":471,"o":"m 332 611 l 70 611 q 20 621 20 664 q 31 712 66 712 l 423 712 q 469 703 469 668 l 469 659 q 469 645 449 614 l 101 -1 q 81 -15 66 -15 l 63 -15 q 15 -6 15 35 l 15 42 q 21 64 332 611 z"},"S":{"x_min":0,"x_max":436,"ha":436,"o":"m 220 716 q 318 716 385 626 l 388 614 l 388 601 q 388 564 339 556 q 316 556 278 599 q 251 616 226 616 l 215 616 q 162 616 135 559 q 129 546 129 534 l 129 519 q 129 458 202 431 q 266 431 342 369 q 416 294 416 205 q 416 95 322 25 q 264 -15 194 -15 q 81 -15 5 85 l 0 106 q 9 156 51 156 q 77 156 111 113 q 151 85 185 85 l 202 85 q 267 85 308 160 q 314 184 314 196 l 314 214 q 314 279 239 320 l 144 347 q 28 413 28 521 l 28 534 q 28 640 141 700 q 184 716 220 716 z"},"}":{"x_min":0,"x_max":495,"ha":495,"o":"m 101 785 l 176 785 q 255 785 288 697 l 290 678 l 290 394 q 290 377 317 377 l 349 377 q 390 365 390 330 l 390 323 q 390 286 342 277 l 302 277 q 288 277 288 246 l 288 -25 q 288 -97 200 -131 l 175 -133 l 100 -133 q 52 -125 52 -83 l 52 -80 q 60 -32 99 -32 l 167 -32 q 187 -32 187 -18 l 187 257 q 187 304 208 329 q 189 355 189 387 l 189 670 q 189 685 169 685 l 99 685 q 60 685 52 734 q 59 785 101 785 z"},"Z":{"x_min":0,"x_max":604,"ha":604,"o":"m 46 716 l 544 716 q 583 716 592 668 l 592 665 q 592 646 548 594 l 156 87 l 543 87 q 592 80 592 37 l 592 34 q 583 -15 542 -15 l 50 -15 q 8 -15 0 38 q 0 58 92 172 l 435 615 l 50 615 q 0 625 0 668 q 11 716 46 716 z"},"x":{"x_min":0,"x_max":454,"ha":454,"o":"m 220 323 q 245 353 356 492 q 366 502 390 506 q 438 495 438 461 l 438 450 q 438 434 371 354 l 283 244 q 438 57 438 43 l 438 32 q 438 -6 391 -15 l 388 -15 q 359 -15 329 32 l 220 167 q 86 0 77 -7 q 64 -15 51 -15 l 49 -15 q 8 -15 0 37 q 0 57 72 138 l 156 246 l 5 435 l 0 456 q 10 506 51 506 q 81 506 118 448 q 198 353 220 323 z"},")":{"x_min":0,"x_max":370,"ha":370,"o":"m 83 796 l 91 796 q 127 796 151 719 q 238 512 238 291 q 238 30 123 -204 q 102 -218 87 -218 l 83 -218 q 42 -218 33 -164 l 74 -62 q 136 115 136 289 q 136 507 36 731 l 33 743 q 42 796 83 796 z"},"&":{"x_min":0,"x_max":711,"ha":711,"o":"m 258 320 q 172 243 172 208 l 170 193 l 170 185 q 170 124 241 96 l 266 92 q 322 92 376 162 l 396 182 z m 259 468 q 317 520 317 546 l 317 554 q 317 590 273 608 l 257 609 q 222 609 205 571 l 202 560 l 202 546 q 202 517 259 468 z m 472 256 l 539 324 q 556 337 572 337 q 620 337 626 282 q 626 254 557 193 l 546 182 l 643 85 q 654 71 654 56 l 654 48 q 644 0 604 0 l 599 0 q 571 0 519 60 l 471 107 q 372 -1 335 -1 q 303 -15 267 -15 q 151 -15 83 101 q 63 148 63 191 q 63 292 171 381 l 184 394 q 99 473 99 506 q 95 506 95 554 q 95 654 202 706 q 232 714 254 714 l 263 714 q 367 714 417 601 q 422 574 422 556 l 422 546 q 422 468 342 404 l 334 395 z"},"_":{"x_min":0,"x_max":468,"ha":468,"o":"m 52 0 l 485 0 q 535 -8 535 -48 l 535 -56 q 525 -103 486 -103 l 52 -103 q 8 -103 0 -47 q 14 0 52 0 z"},"v":{"x_min":0,"x_max":539,"ha":539,"o":"m 48 517 l 51 517 q 90 517 115 448 l 258 153 q 417 490 430 504 q 448 517 465 517 q 515 508 515 468 l 515 466 q 515 453 433 283 l 296 1 q 274 -15 258 -15 l 257 -15 q 215 -15 188 64 q 11 426 0 458 l 0 471 q 9 517 48 517 z"},"O":{"x_min":0,"x_max":750,"ha":750,"o":"m 365 715 q 550 715 674 544 q 730 447 730 349 q 730 166 565 45 q 471 -15 369 -15 l 361 -15 q 173 -15 54 160 q 0 249 0 352 q 0 527 153 646 q 253 715 365 715 z m 101 347 q 101 220 213 133 q 283 86 361 86 l 371 86 q 494 86 580 197 q 629 267 629 351 q 629 494 498 577 q 433 614 365 614 q 234 614 148 500 q 101 433 101 347 z"},"(":{"x_min":0,"x_max":370,"ha":370,"o":"m 309 794 l 316 794 q 363 785 363 746 l 363 738 l 325 636 q 262 466 262 288 q 262 65 362 -154 l 365 -166 q 355 -219 314 -219 l 311 -219 q 268 -219 247 -142 q 160 60 160 290 q 160 536 271 775 q 291 794 309 794 z"},"C":{"x_min":0,"x_max":635,"ha":635,"o":"m 363 716 q 477 716 578 645 q 588 624 588 613 l 588 609 q 588 564 536 559 l 530 559 l 463 593 q 402 613 363 613 q 239 613 148 499 q 103 423 103 351 q 103 205 240 120 q 300 88 360 88 l 365 88 q 442 88 525 140 l 542 140 q 588 130 588 92 l 588 87 q 588 37 454 -3 q 414 -15 369 -15 l 360 -15 q 179 -15 58 152 q 0 250 0 351 q 0 541 173 660 q 266 716 363 716 z"},"W":{"x_min":0,"x_max":849,"ha":849,"o":"m 415 485 l 278 10 q 258 -15 235 -15 l 228 -15 q 185 -15 172 67 q 14 606 0 666 q 11 716 46 716 l 54 716 q 98 716 109 649 l 233 217 q 365 680 375 698 q 393 716 413 716 l 418 716 q 464 716 475 638 q 487 604 597 218 l 735 691 q 754 716 774 716 l 783 716 q 829 706 829 672 l 829 661 l 640 7 q 618 -15 598 -15 l 596 -15 q 549 -15 537 65 q 443 386 415 485 z"},"A":{"x_min":0,"x_max":582,"ha":582,"o":"m 346 363 l 287 518 l 230 363 z m 286 712 q 332 712 350 634 q 572 56 574 40 l 574 33 q 574 -6 526 -15 l 523 -15 q 479 -15 463 58 l 384 262 l 190 262 l 91 2 q 69 -15 53 -15 l 48 -15 q 0 -6 0 35 l 0 39 l 63 211 q 227 637 242 686 q 265 712 286 712 z"},"f":{"x_min":0,"x_max":409,"ha":409,"o":"m 291 716 l 337 716 q 375 716 383 664 q 383 626 333 615 l 303 615 q 247 615 229 553 l 228 516 l 228 505 l 292 505 l 321 507 q 357 507 368 458 l 368 452 q 368 417 322 405 l 228 405 l 228 54 l 229 34 q 229 -3 179 -15 q 142 -15 126 29 l 128 54 l 128 405 l 46 405 q 8 405 0 458 q 0 487 42 507 l 82 505 l 126 505 l 126 524 q 126 658 245 708 z"},"Q":{"x_min":0,"x_max":758,"ha":758,"o":"m 589 208 q 629 274 629 351 q 629 494 498 578 q 434 614 365 614 q 234 614 148 500 q 101 433 101 347 q 101 220 213 133 q 283 86 361 86 l 371 86 q 457 86 517 134 q 452 205 441 223 l 441 241 q 450 288 489 288 l 494 288 q 520 288 566 231 z m 658 133 q 732 61 732 39 l 732 35 q 732 -4 682 -15 q 652 -15 600 49 q 586 59 586 59 q 491 -15 369 -15 l 361 -15 q 173 -15 54 160 q 0 249 0 352 q 0 527 153 646 q 254 715 365 715 q 550 715 674 544 q 730 448 730 349 q 730 233 658 133 z"},"w":{"x_min":0,"x_max":675,"ha":675,"o":"m 321 293 l 229 9 q 211 -15 188 -15 l 186 -15 q 150 -15 136 28 l 0 456 q 10 507 51 507 q 97 507 112 424 l 187 195 q 276 479 285 490 q 302 505 322 507 q 367 507 380 437 l 458 195 q 543 464 553 485 q 574 507 595 507 q 645 498 645 454 l 500 6 q 479 -15 459 -15 l 458 -15 q 412 -15 396 66 q 341 234 321 293 z"},"-":{"x_min":0,"x_max":327,"ha":327,"o":"m 85 341 l 281 341 q 321 341 333 287 q 320 235 281 235 l 85 235 q 41 235 33 292 q 47 341 85 341 z"},"E":{"x_min":0,"x_max":503,"ha":503,"o":"m 35 722 l 61 717 l 420 717 l 428 719 q 474 719 481 663 q 471 615 426 615 l 102 615 l 102 395 l 309 395 l 335 396 q 372 396 383 346 q 383 311 341 293 l 301 295 l 102 295 l 102 87 l 435 87 q 474 87 482 32 q 468 -15 434 -15 l 48 -15 q 0 -6 0 35 l 0 668 q 7 717 35 717 z"},"s":{"x_min":0,"x_max":473,"ha":473,"o":"m 344 160 q 343 169 324 171 q 77 227 60 242 q 10 280 10 336 q 10 412 116 480 q 175 511 232 511 q 366 511 443 388 l 445 370 l 445 367 q 445 325 396 318 q 362 318 334 365 q 290 408 232 408 q 157 408 114 338 l 113 333 q 113 323 155 320 q 365 269 387 261 q 447 221 447 161 l 447 159 q 447 76 329 8 q 278 -15 221 -15 q 104 -15 23 95 q 13 109 13 123 l 13 134 q 13 173 67 179 q 93 179 128 129 q 171 89 229 89 q 297 89 342 153 z"},">":{"x_min":0,"x_max":495,"ha":495,"o":"m 121 562 q 139 562 244 493 q 454 363 471 348 q 483 333 483 316 l 483 312 q 483 275 428 252 q 141 69 126 69 l 117 69 q 67 79 67 121 l 67 123 q 67 161 137 194 l 327 316 q 94 459 80 473 q 67 491 67 509 q 77 562 121 562 z"},"l":{"x_min":0,"x_max":231,"ha":231,"o":"m 78 711 l 86 711 q 133 702 133 667 l 133 86 l 157 86 q 192 86 203 38 l 203 34 q 194 -15 153 -15 l 82 -15 q 41 -15 32 35 l 32 658 q 38 711 78 711 z"},"8":{"x_min":0,"x_max":475,"ha":475,"o":"m 233 717 q 324 717 387 637 q 423 588 423 529 l 423 520 q 423 440 365 388 q 453 324 453 211 q 453 99 350 23 q 292 -15 229 -15 l 220 -15 q 112 -15 34 92 q 0 153 0 211 q 0 328 94 394 q 63 417 48 478 q 42 493 42 520 l 42 529 q 42 629 139 691 q 187 717 233 717 z m 144 521 q 144 462 215 438 l 233 436 q 295 436 318 502 l 322 526 q 322 591 252 612 l 230 614 q 170 614 147 549 z m 102 211 q 102 125 194 91 q 205 87 229 87 q 311 87 346 178 l 350 203 l 350 220 q 350 290 268 328 q 246 335 227 335 q 138 335 106 244 z"},"\\":{"x_min":0,"x_max":337,"ha":337,"o":"m 52 771 l 54 771 q 103 771 125 676 q 302 200 374 -4 q 364 -60 322 -60 l 314 -60 q 272 -60 249 33 q 19 653 0 716 q 8 771 52 771 z"},"e":{"x_min":0,"x_max":553,"ha":553,"o":"m 263 515 q 416 515 500 370 q 530 313 530 247 l 530 236 q 521 186 480 186 l 115 186 q 129 138 194 103 q 233 88 267 88 q 306 88 360 115 l 376 115 q 422 106 422 67 l 422 62 q 422 4 277 -15 l 263 -15 q 121 -15 35 119 q 0 182 0 250 q 0 396 137 482 q 204 515 263 515 z m 106 287 l 426 287 q 426 305 385 359 q 331 411 278 411 l 258 411 q 178 411 126 332 q 108 301 106 287 z"},"b":{"x_min":0,"x_max":586,"ha":586,"o":"m 68 714 l 76 714 q 123 704 123 667 l 123 462 q 183 520 289 520 q 392 520 476 442 q 556 358 556 253 q 556 103 414 17 q 352 -15 294 -15 l 280 -15 q 171 -15 79 86 q 21 163 21 266 l 21 667 q 21 704 68 714 z m 123 258 l 123 249 q 123 146 231 95 q 260 86 283 86 l 294 86 q 395 86 447 195 q 455 228 455 245 l 455 256 q 455 359 345 411 q 311 419 292 419 l 285 419 q 185 419 133 312 q 123 282 123 258 z"},"%":{"x_min":0,"x_max":786,"ha":786,"o":"m 226 726 l 235 726 q 324 726 385 646 q 421 592 421 537 q 421 414 293 355 q 257 345 233 345 l 229 345 q 118 345 59 452 q 39 493 39 535 q 39 660 171 717 q 198 726 226 726 z m 643 716 l 649 716 q 696 706 696 667 l 696 660 q 696 645 625 553 l 203 -4 q 182 -15 171 -15 l 167 -15 q 119 -4 119 31 l 119 39 q 119 60 174 126 l 612 704 q 629 716 643 716 z m 141 536 l 141 533 q 141 471 210 448 l 226 446 l 235 446 q 296 446 318 518 l 320 536 q 320 600 252 623 l 230 626 q 167 626 144 560 z m 590 363 q 702 363 767 247 q 781 205 781 173 l 781 167 q 781 55 663 -5 q 626 -20 590 -20 l 587 -20 q 489 -20 427 74 q 400 120 400 165 l 400 176 q 400 277 500 339 q 548 363 590 363 z m 500 172 q 500 110 564 85 l 588 82 l 594 82 q 654 82 678 150 l 679 165 l 679 176 q 679 238 606 260 l 589 262 q 523 262 501 187 z"},"m":{"x_min":0,"x_max":842,"ha":842,"o":"m 83 506 q 120 506 130 474 q 170 506 245 506 q 345 506 406 432 q 427 471 523 500 l 566 506 q 688 506 758 391 q 781 342 781 298 l 781 30 q 781 -5 734 -15 l 729 -15 q 682 -6 682 34 l 682 294 q 682 372 600 402 l 578 405 l 561 405 q 496 405 461 329 q 457 312 457 301 l 457 34 q 448 -15 408 -15 l 405 -15 q 357 -6 357 32 l 357 253 q 357 338 336 358 q 301 405 247 405 l 241 405 q 166 405 135 324 q 130 304 130 271 l 130 32 q 130 -6 83 -15 l 80 -15 q 41 -15 31 34 l 31 451 q 37 506 83 506 z"},"#":{"x_min":0,"x_max":652,"ha":652,"o":"m 503 713 q 549 701 549 667 l 549 662 q 549 646 515 487 l 550 487 l 566 489 q 606 489 617 437 q 607 386 565 386 l 495 386 l 482 321 l 533 321 q 589 316 589 268 q 580 220 554 220 l 554 215 l 529 220 l 461 220 q 423 25 414 8 q 396 -16 372 -16 l 367 -16 q 321 -6 321 32 l 321 35 l 358 220 l 271 220 q 273 220 273 212 q 273 190 259 112 q 238 8 229 2 q 215 -18 188 -18 q 138 -8 138 35 l 175 220 l 145 220 l 134 218 q 93 218 83 270 l 83 273 q 83 310 133 321 l 198 321 l 210 386 l 161 386 q 111 396 111 438 q 119 487 144 487 l 144 490 l 178 487 l 231 487 q 271 701 286 701 q 300 711 319 711 q 361 711 368 660 l 334 487 l 412 487 q 449 681 458 693 q 477 713 503 713 z m 314 386 l 302 321 l 378 321 l 391 386 z"},",":{"x_min":0,"x_max":272,"ha":272,"o":"m 138 -14 q 52 1 52 71 l 52 73 q 52 123 111 147 q 122 152 139 152 l 148 152 q 228 136 228 77 l 228 62 l 231 39 l 231 30 q 231 -69 134 -117 q 113 -131 98 -131 q 65 -131 58 -88 q 58 -52 108 -42 q 123 -34 138 -14 z"},"n":{"x_min":0,"x_max":584,"ha":584,"o":"m 91 514 q 139 502 139 468 l 139 461 q 197 514 297 514 q 406 514 491 423 q 552 347 552 263 l 552 31 q 552 -5 504 -15 l 500 -15 q 452 -6 452 35 l 452 239 q 452 366 344 405 q 317 412 297 412 l 292 412 q 201 412 151 318 q 139 290 139 224 l 139 33 q 139 -6 91 -15 l 87 -15 q 47 -15 38 35 l 38 458 q 44 514 91 514 z"},"h":{"x_min":0,"x_max":537,"ha":537,"o":"m 69 713 l 78 713 q 125 703 125 669 l 125 476 q 175 520 261 520 q 392 520 471 396 q 500 341 500 291 l 500 33 q 500 -6 452 -15 l 449 -15 q 412 -15 399 31 l 399 280 q 399 370 306 410 q 284 417 261 417 q 169 417 131 317 q 125 296 125 245 l 125 33 q 125 -6 76 -15 l 73 -15 q 36 -15 23 31 l 23 665 q 34 713 69 713 z"},"z":{"x_min":0,"x_max":479,"ha":479,"o":"m 32 510 l 66 507 l 376 507 l 395 509 q 440 495 440 463 l 440 453 q 440 436 396 387 l 155 85 l 395 85 q 440 76 440 38 l 440 32 q 440 -6 393 -15 l 49 -15 q 7 -15 0 37 q 0 58 77 146 l 286 409 l 75 409 l 43 407 q 0 422 0 459 q 8 507 32 507 z"},"B":{"x_min":0,"x_max":460,"ha":460,"o":"m 35 716 l 60 712 l 169 712 l 177 714 q 270 714 333 628 q 366 581 366 524 l 366 519 q 366 451 325 403 q 436 342 436 208 q 436 73 296 1 q 251 -15 215 -15 l 48 -15 q 0 -6 0 35 l 0 664 q 7 712 35 712 z m 101 611 l 101 434 l 154 434 q 235 434 257 489 q 263 505 263 521 l 263 526 q 263 587 192 609 l 156 611 z m 101 333 l 101 86 l 182 86 q 279 86 312 140 q 333 171 333 208 l 333 211 q 333 300 236 330 l 187 333 z"},"K":{"x_min":0,"x_max":522,"ha":522,"o":"m 60 715 l 62 715 q 111 707 111 667 l 111 383 q 432 704 440 704 l 453 706 l 459 706 q 505 697 505 658 l 505 652 q 505 627 462 592 l 245 373 l 500 58 l 501 42 l 501 35 q 501 -4 454 -13 l 450 -13 q 420 -13 377 50 l 171 301 l 111 239 l 111 33 q 111 -6 62 -15 l 60 -15 q 19 -15 10 35 l 10 665 q 19 715 60 715 z"},"R":{"x_min":0,"x_max":456,"ha":456,"o":"m 46 715 l 200 715 q 306 715 373 604 q 395 561 395 514 l 395 506 q 395 402 293 335 l 289 333 q 451 53 451 42 l 451 33 q 451 -6 402 -15 l 399 -15 q 363 -15 331 56 l 184 307 l 102 307 l 102 33 q 102 -6 53 -15 l 50 -15 q 9 -15 0 36 l 0 661 q 6 715 46 715 z m 102 616 l 102 408 l 192 408 q 268 408 292 491 l 294 504 l 294 518 q 294 578 226 609 q 207 616 163 616 z"},"T":{"x_min":0,"x_max":580,"ha":580,"o":"m 46 716 l 503 716 q 549 707 549 668 l 549 661 q 549 621 495 615 l 325 615 l 325 33 q 325 -6 276 -15 l 274 -15 q 233 -15 224 36 l 224 615 l 50 615 q 0 625 0 667 q 11 716 46 716 z"},"P":{"x_min":0,"x_max":448,"ha":448,"o":"m 46 717 l 215 717 q 321 717 396 607 q 424 551 424 506 l 424 493 q 424 394 334 322 q 273 280 215 280 l 102 280 l 102 33 q 102 -6 53 -15 l 50 -15 q 9 -15 0 36 l 0 662 q 6 717 46 717 z m 102 615 l 102 381 l 202 381 q 285 381 316 461 q 322 477 322 500 q 322 572 247 607 q 230 615 206 615 z"},"|":{"x_min":0,"x_max":495,"ha":495,"o":"m 261 805 l 266 805 q 313 796 313 757 l 313 -175 q 313 -210 262 -221 q 220 -221 210 -168 l 210 754 q 219 805 261 805 z"},"t":{"x_min":0,"x_max":337,"ha":337,"o":"m 140 693 l 148 693 q 194 684 194 650 l 194 503 l 252 503 l 268 505 q 306 505 317 457 q 317 420 274 404 l 245 406 l 194 406 l 194 158 q 194 99 227 88 l 266 84 l 285 84 q 321 84 330 37 l 330 33 q 322 -15 281 -15 l 244 -15 q 149 -15 103 88 q 95 114 95 147 l 95 406 l 74 406 l 43 404 q 0 419 0 456 q 8 503 32 503 l 32 507 l 66 503 l 95 503 l 95 640 q 101 693 140 693 z"},"M":{"x_min":0,"x_max":728,"ha":728,"o":"m 130 427 l 130 33 q 130 -6 83 -15 l 79 -15 q 39 -15 29 36 l 29 660 q 35 714 75 714 l 83 714 q 123 714 137 656 l 361 155 q 365 172 508 499 l 600 696 q 617 714 636 714 l 644 714 q 684 714 689 660 l 689 36 q 680 -15 640 -15 l 636 -15 q 588 -6 588 33 l 588 427 q 407 16 398 3 q 378 -15 359 -15 q 316 -15 289 72 z"},"g":{"x_min":0,"x_max":559,"ha":559,"o":"m 266 513 q 383 513 469 416 q 529 334 529 261 l 527 199 l 527 -20 q 527 -89 426 -166 q 350 -216 266 -216 q 122 -216 28 -88 q 10 -57 10 -44 l 10 -39 q 10 -3 56 7 l 62 7 q 97 7 117 -45 q 176 -120 266 -120 q 373 -120 426 -24 l 429 -5 l 429 42 q 369 -13 271 -13 l 256 -13 q 150 -13 59 86 q 2 166 2 250 q 2 378 116 465 q 188 513 266 513 z m 103 255 l 103 247 q 103 145 209 95 q 237 87 260 87 l 271 87 q 370 87 421 193 q 429 225 429 243 l 429 254 q 429 355 321 405 q 287 413 269 413 l 262 413 q 163 413 112 308 q 103 279 103 255 z"},"j":{"x_min":0,"x_max":320,"ha":320,"o":"m 51 -214 q 7 -214 0 -161 q 0 -120 53 -112 q 145 -112 175 -21 l 179 30 l 179 467 q 179 508 230 516 q 278 506 278 467 l 278 14 q 278 -130 142 -197 q 98 -212 60 -214 z m 227 639 q 278 628 278 587 q 278 544 225 536 q 179 549 179 582 l 179 593 q 179 626 227 639 z"},"i":{"x_min":0,"x_max":210,"ha":210,"o":"m 103 643 q 151 630 151 597 l 151 586 q 151 547 99 540 q 62 540 50 591 q 60 643 103 643 z m 103 518 q 151 505 151 472 l 151 33 q 151 -6 103 -15 l 100 -15 q 60 -15 50 35 l 50 462 q 56 518 103 518 z"},"y":{"x_min":0,"x_max":452,"ha":452,"o":"m 222 187 q 344 483 354 495 q 371 509 389 509 q 436 500 436 462 l 436 459 q 434 444 267 44 q 187 -153 175 -169 q 163 -178 143 -184 q 94 -173 94 -139 l 94 -131 q 94 -122 169 61 l 8 454 l 8 460 q 18 507 57 507 q 97 507 120 430 q 199 243 222 187 z"},"@":{"x_min":0,"x_max":986,"ha":986,"o":"m 277 310 l 277 304 q 277 197 386 142 q 419 129 446 129 l 462 129 q 551 129 609 220 q 631 262 631 300 l 631 308 q 631 412 528 467 q 492 483 454 483 l 452 483 q 343 483 288 369 q 277 334 277 310 z m 631 85 q 566 24 462 24 l 446 24 q 302 24 207 168 q 172 238 172 308 q 172 466 326 558 q 392 588 454 588 q 614 588 708 432 q 736 368 736 300 l 736 125 q 799 125 835 189 q 854 233 854 287 l 854 312 q 854 464 726 584 q 614 676 481 676 q 285 676 164 503 q 105 409 105 302 l 105 300 q 105 123 252 3 q 357 -74 481 -74 q 586 -74 695 -8 l 710 -5 q 764 -16 764 -59 q 764 -118 589 -167 q 541 -179 495 -179 l 470 -179 q 294 -179 147 -46 q -2 104 -2 304 q -2 508 163 663 q 304 782 472 782 l 489 782 q 699 782 854 603 q 961 466 961 302 q 961 94 817 37 q 780 20 741 20 l 728 20 q 650 20 633 55 l 631 69 z"},".":{"x_min":0,"x_max":272,"ha":272,"o":"m 146 148 q 209 148 227 75 l 227 61 q 227 15 171 -10 q 162 -15 146 -15 l 144 -15 q 77 -15 63 67 q 63 121 121 144 q 130 148 146 148 z"},"p":{"x_min":0,"x_max":572,"ha":572,"o":"m 291 513 q 393 513 475 436 q 553 354 553 250 q 553 103 414 19 q 353 -12 296 -12 l 282 -12 q 190 -12 128 44 l 128 -172 q 128 -207 79 -218 q 40 -218 29 -168 l 29 234 q 29 432 216 501 q 240 509 291 513 z m 130 256 l 130 247 q 130 156 218 106 q 250 90 286 90 l 296 90 q 391 90 440 188 q 452 218 452 247 l 452 256 q 452 331 382 383 q 341 411 289 411 q 187 411 139 303 q 130 277 130 256 z"},"X":{"x_min":0,"x_max":621,"ha":621,"o":"m 46 716 l 54 716 q 84 716 102 682 l 297 433 l 511 708 q 526 716 539 716 l 545 716 q 584 716 593 668 l 593 665 q 593 644 540 582 l 360 350 l 587 59 l 593 39 l 593 34 q 584 -15 543 -15 l 541 -15 q 508 -15 488 27 l 297 271 l 83 -3 q 68 -15 52 -15 l 49 -15 q 0 -6 0 35 l 0 41 q 0 58 83 159 l 233 354 q 10 637 3 651 l 0 667 q 11 716 46 716 z"},"*":{"x_min":0,"x_max":500,"ha":500,"o":"m 231 667 l 216 718 l 216 724 q 216 765 270 776 q 321 763 321 724 l 321 718 l 306 668 l 356 699 l 373 702 q 425 692 425 650 l 425 644 q 425 615 384 596 l 326 598 l 372 561 l 380 539 l 380 527 q 380 486 330 477 q 280 477 271 543 l 270 548 l 257 507 q 237 477 208 477 q 157 488 157 525 l 157 533 q 157 564 208 594 l 213 597 l 154 596 q 112 613 112 648 l 112 650 q 112 692 165 702 q 184 702 231 667 z"},"Y":{"x_min":0,"x_max":542,"ha":542,"o":"m 262 438 q 434 697 443 704 q 457 714 469 714 l 480 714 q 514 714 526 667 q 526 644 460 554 l 313 334 l 313 40 q 307 -15 267 -15 l 259 -15 q 224 -15 211 27 l 211 333 q 211 335 136 447 l 3 648 l 0 665 q 11 714 46 714 l 54 714 q 88 714 105 671 z"},"c":{"x_min":0,"x_max":489,"ha":489,"o":"m 265 516 q 368 516 453 438 q 461 422 461 410 l 461 406 q 452 358 412 358 l 410 358 q 392 358 343 395 q 307 414 271 414 l 260 414 q 163 414 112 311 q 101 276 101 249 q 101 149 204 98 q 234 86 269 86 q 327 86 386 136 l 406 141 l 414 141 q 453 141 461 93 l 461 90 q 461 42 333 -7 q 291 -15 271 -15 l 256 -15 q 148 -15 57 86 q 0 166 0 250 q 0 380 114 467 q 187 516 265 516 z"},"!":{"x_min":0,"x_max":250,"ha":250,"o":"m 120 719 l 125 719 q 167 719 176 672 l 176 203 q 164 154 122 154 q 69 162 69 203 l 69 674 q 79 719 120 719 z m 115 115 l 120 115 q 184 106 184 56 l 184 45 q 184 -1 125 -15 l 117 -15 q 66 -15 54 50 q 67 115 115 115 z"},"/":{"x_min":0,"x_max":376,"ha":376,"o":"m 323 755 q 373 747 373 706 l 373 693 q 126 12 100 -52 q 79 -75 58 -75 l 54 -75 q 11 -75 2 -21 q 4 -4 275 731 q 299 755 323 755 z"},"[":{"x_min":0,"x_max":380,"ha":380,"o":"m 156 788 l 190 785 l 332 785 l 356 787 q 404 770 404 737 l 404 731 q 404 697 360 679 l 324 681 l 226 681 l 226 -116 l 355 -116 q 404 -126 404 -164 l 404 -169 q 404 -215 349 -221 l 173 -221 q 121 -211 121 -167 l 121 728 q 125 785 156 785 z"},"6":{"x_min":0,"x_max":464,"ha":464,"o":"m 103 218 l 103 201 q 103 134 180 95 q 202 88 225 86 q 308 86 343 173 l 348 205 l 348 211 q 348 298 254 330 l 222 333 q 142 333 106 245 z m 215 434 l 233 434 q 342 434 417 326 q 451 267 451 210 q 451 98 349 23 q 291 -15 228 -15 l 219 -15 q 111 -15 34 92 q 0 152 0 210 q 0 286 54 358 l 254 703 q 276 716 292 716 q 329 716 340 666 q 340 645 294 572 z"},"r":{"x_min":0,"x_max":452,"ha":452,"o":"m 102 518 q 149 506 149 472 l 149 464 q 210 518 307 518 q 359 518 420 492 q 441 470 441 450 l 441 447 q 433 399 392 399 l 388 399 q 337 415 314 415 l 304 415 q 205 415 159 312 q 149 286 149 250 l 149 33 q 149 -6 101 -15 l 98 -15 q 58 -15 48 35 l 48 462 q 54 518 102 518 z"},"2":{"x_min":0,"x_max":477,"ha":477,"o":"m 225 716 q 332 716 410 621 q 452 558 452 491 q 452 388 354 296 l 170 86 l 413 86 q 453 86 461 39 l 461 34 q 454 -15 411 -15 l 52 -15 q 4 -6 4 35 l 4 37 q 4 61 42 97 l 328 422 q 349 452 349 491 q 349 574 261 608 q 247 612 229 612 l 223 612 q 143 612 107 526 q 103 509 101 479 q 83 443 53 443 l 48 443 q 0 452 0 491 q 0 609 112 684 q 172 716 225 716 z"},"{":{"x_min":0,"x_max":495,"ha":495,"o":"m 348 791 l 417 791 q 460 791 472 749 l 472 735 q 472 700 426 689 l 354 689 q 333 689 333 667 l 333 384 q 333 357 314 327 q 334 304 334 262 l 334 -24 q 334 -40 355 -40 l 426 -40 q 472 -49 472 -87 l 472 -95 q 472 -131 424 -141 l 350 -141 q 266 -141 235 -48 l 233 -21 l 233 260 q 233 272 220 275 l 179 275 q 129 285 129 328 q 140 377 175 377 l 205 377 q 231 377 231 388 l 231 668 q 231 760 325 789 z"},"9":{"x_min":0,"x_max":475,"ha":475,"o":"m 103 500 l 103 483 q 103 419 175 379 q 196 370 225 370 q 295 370 333 437 q 346 461 346 490 l 346 492 q 346 575 258 608 q 247 613 227 613 l 216 613 q 147 613 109 534 q 103 512 103 500 z m 210 268 q 93 276 26 388 q 0 441 0 492 q 0 617 121 689 q 174 715 225 715 q 342 715 417 604 q 448 544 448 492 q 448 408 381 329 l 135 -1 q 116 -15 99 -15 q 49 -5 49 37 q 49 59 111 133 z"}," ":{"x_min":0,"x_max":248,"ha":248,"o":""},"I":{"x_min":0,"x_max":263,"ha":263,"o":"m 78 722 l 89 720 l 156 720 l 165 722 q 217 711 217 668 q 208 618 167 618 l 174 618 l 174 87 l 170 87 q 207 87 217 39 l 217 34 q 208 -15 167 -15 l 78 -15 q 29 -6 29 35 l 29 39 q 40 87 76 87 l 72 87 l 72 618 l 79 618 q 35 618 29 671 l 29 674 q 29 708 78 722 z"},"H":{"x_min":0,"x_max":537,"ha":537,"o":"m 46 714 l 55 714 q 101 705 101 670 l 101 393 l 419 393 l 419 667 q 428 714 467 714 l 474 714 q 521 706 521 667 l 521 31 q 521 -4 472 -15 l 467 -15 q 419 -6 419 35 l 419 294 l 101 294 l 101 33 q 101 -6 53 -15 l 50 -15 q 9 -15 0 36 l 0 660 q 6 714 46 714 z"},"4":{"x_min":0,"x_max":539,"ha":539,"o":"m 365 710 l 376 710 q 407 710 423 667 l 420 646 l 420 294 l 462 294 l 479 295 q 516 295 529 246 q 529 209 485 193 l 455 195 l 420 195 l 420 31 q 420 -4 373 -15 l 368 -15 q 319 -6 319 35 l 319 195 l 87 195 l 39 193 q 0 209 0 241 l 0 248 q 0 268 22 286 q 315 666 332 692 q 349 710 365 710 z m 156 294 l 319 294 l 319 506 z"},"~":{"x_min":0,"x_max":495,"ha":495,"o":"m 197 430 l 208 430 q 258 430 318 390 l 333 386 l 340 386 l 388 400 q 451 388 451 338 q 451 278 348 265 l 331 265 q 282 265 222 306 l 207 310 l 199 310 l 154 298 l 146 298 q 91 309 91 355 l 91 362 q 91 409 153 423 q 173 430 197 430 z"},"D":{"x_min":0,"x_max":557,"ha":557,"o":"m 35 722 l 61 716 l 153 716 l 173 718 q 338 718 459 576 q 537 475 537 348 q 537 173 383 53 q 285 -15 176 -15 l 48 -15 q 0 -6 0 35 l 0 667 q 7 716 35 716 z m 102 617 l 102 87 l 167 87 q 333 87 414 249 q 435 303 435 354 q 435 474 328 564 q 262 617 129 617 z"},"^":{"x_min":0,"x_max":460,"ha":460,"o":"m 200 715 l 210 715 q 245 715 277 651 q 393 477 393 462 l 393 450 q 393 410 338 402 q 304 402 256 491 l 207 564 l 109 414 q 85 402 71 402 q 33 402 21 455 q 21 476 63 537 q 166 699 180 708 z"},"0":{"x_min":0,"x_max":483,"ha":483,"o":"m 232 716 q 362 716 431 578 q 467 467 467 373 l 467 331 q 467 215 419 97 q 347 -15 236 -15 l 230 -15 q 110 -15 42 112 q 0 219 0 349 l 0 354 q 0 492 50 605 q 124 716 232 716 z m 96 360 l 96 340 q 96 216 140 134 q 179 85 229 85 l 234 85 q 346 85 366 264 q 371 294 373 353 q 373 457 337 551 q 296 617 234 617 q 159 617 123 532 q 96 443 96 360 z"},"F":{"x_min":0,"x_max":468,"ha":468,"o":"m 35 722 l 61 717 l 420 717 l 428 719 q 474 719 481 663 q 471 615 426 615 l 102 615 l 102 395 l 309 395 l 335 396 q 372 396 383 346 q 383 311 341 293 l 301 295 l 102 295 l 102 48 l 104 35 q 92 -15 54 -15 l 48 -15 q 0 -6 0 35 l 0 668 q 7 717 35 717 z"},"`":{"x_min":0,"x_max":367,"ha":367,"o":"m 151 704 l 159 704 q 185 704 222 658 q 314 572 314 556 l 316 544 q 305 493 264 493 l 260 493 q 232 493 170 563 q 103 621 103 650 l 103 656 q 103 693 151 704 z"},"k":{"x_min":0,"x_max":516,"ha":516,"o":"m 200 253 l 139 214 l 139 33 q 139 -6 90 -15 l 87 -15 q 50 -15 38 31 l 38 667 q 48 715 83 715 l 92 715 q 139 705 139 671 l 139 334 q 378 492 425 519 l 438 519 q 480 519 488 467 q 488 435 422 399 q 313 326 287 307 l 485 56 l 488 40 l 488 36 q 479 -13 438 -13 l 435 -13 q 406 -13 358 56 z"},"u":{"x_min":0,"x_max":580,"ha":580,"o":"m 450 39 q 381 -15 298 -15 l 285 -15 q 164 -15 75 104 q 34 167 34 260 l 34 460 q 40 516 87 516 q 135 504 135 470 l 135 274 q 135 157 200 118 q 242 86 292 86 q 390 86 439 187 q 450 219 450 252 l 450 466 q 459 516 502 516 q 550 505 550 467 l 550 31 q 550 -5 502 -15 l 498 -15 q 450 -6 450 35 z"},"]":{"x_min":0,"x_max":370,"ha":370,"o":"m 59 787 l 90 785 l 224 785 l 248 787 q 296 773 296 735 l 296 -173 q 296 -211 246 -221 l 64 -221 q 19 -221 13 -167 l 13 -164 q 13 -129 64 -113 l 76 -116 l 190 -116 l 190 681 l 98 681 l 59 679 q 13 694 13 733 q 13 770 59 787 z"},"U":{"x_min":0,"x_max":570,"ha":570,"o":"m 65 714 l 74 714 q 121 705 121 670 l 121 277 q 121 158 187 119 q 229 86 280 86 q 378 86 429 188 q 439 220 439 255 l 439 667 q 447 714 487 714 l 494 714 q 540 706 540 667 l 540 236 q 540 119 429 33 q 358 -15 285 -15 l 272 -15 q 150 -15 61 104 q 20 169 20 262 l 20 660 q 25 714 65 714 z"},"o":{"x_min":0,"x_max":542,"ha":542,"o":"m 263 512 q 365 512 448 435 q 526 352 526 249 q 526 101 387 16 q 326 -15 269 -15 l 254 -15 q 147 -15 56 85 q 0 164 0 249 q 0 377 113 463 q 186 512 263 512 z m 102 254 l 102 245 q 102 154 190 104 q 222 87 258 87 l 269 87 q 363 87 413 186 q 424 216 424 245 l 424 254 q 424 330 354 382 q 314 410 261 410 q 158 410 110 301 q 102 276 102 254 z"},"N":{"x_min":0,"x_max":626,"ha":626,"o":"m 487 183 l 487 667 q 496 713 535 713 l 541 713 q 580 713 588 666 l 588 37 q 588 -6 536 -15 q 506 -15 459 56 l 101 513 l 101 35 q 101 -4 52 -13 l 50 -13 q 9 -13 0 37 l 0 659 q 6 713 46 713 l 53 713 q 86 713 106 670 q 132 641 487 183 z"},"+":{"x_min":0,"x_max":495,"ha":495,"o":"m 265 560 l 271 560 q 312 560 320 510 l 320 414 l 410 414 q 469 409 469 358 q 459 308 432 308 l 432 303 l 406 308 l 320 308 l 320 210 q 311 160 269 160 l 265 160 q 215 169 215 208 l 215 308 l 131 308 l 119 306 q 77 306 66 360 l 66 364 q 66 402 119 414 l 215 414 l 215 512 q 224 560 265 560 z"},"G":{"x_min":0,"x_max":610,"ha":610,"o":"m 358 716 q 474 716 569 649 q 583 631 583 615 l 583 613 q 583 572 533 563 q 522 563 454 595 q 414 611 376 611 l 347 611 q 250 611 161 517 q 103 438 103 354 l 103 347 q 103 211 229 125 q 294 88 360 88 l 367 88 q 432 88 489 120 l 489 264 l 369 264 q 321 272 321 314 l 321 316 q 330 365 371 365 l 542 365 q 582 365 590 316 l 590 111 q 590 57 561 42 q 463 -15 371 -15 l 360 -15 q 179 -15 58 152 q 0 248 0 351 q 0 534 163 654 q 264 716 358 716 z"},"q":{"x_min":0,"x_max":563,"ha":563,"o":"m 271 508 q 372 508 454 432 q 532 356 532 230 l 532 -170 q 521 -220 482 -220 q 433 -209 433 -174 l 433 41 q 373 -15 276 -15 l 262 -15 q 156 -15 65 84 q 10 163 10 247 q 10 374 122 460 q 194 508 271 508 z m 111 252 l 111 243 q 111 153 199 103 q 229 87 266 87 l 276 87 q 370 87 420 184 q 431 214 431 243 l 431 252 q 431 327 361 379 q 321 407 269 407 q 167 407 119 299 q 111 273 111 252 z"},"d":{"x_min":0,"x_max":569,"ha":569,"o":"m 478 714 l 486 714 q 533 704 533 669 l 533 304 l 535 242 q 535 165 472 81 q 384 -15 273 -15 l 258 -15 q 150 -15 57 86 q 0 167 0 253 q 0 383 115 471 q 188 520 268 520 q 369 520 434 462 l 434 638 l 432 669 q 446 714 478 714 z m 101 258 l 101 249 q 101 146 210 95 q 238 86 262 86 l 273 86 q 374 86 425 195 q 434 228 434 245 l 434 256 q 434 359 323 411 q 290 419 271 419 l 264 419 q 163 419 111 312 q 101 282 101 258 z"},"1":{"x_min":0,"x_max":277,"ha":277,"o":"m 162 716 l 171 716 q 217 706 217 670 l 217 34 q 208 -15 167 -15 l 164 -15 q 116 -4 116 31 l 116 596 q 83 585 65 585 q 31 585 20 631 l 20 643 q 20 682 105 699 z"},"5":{"x_min":0,"x_max":495,"ha":495,"o":"m 89 713 l 111 710 l 391 710 q 433 710 442 659 q 442 618 391 606 l 148 606 l 148 451 l 238 451 q 370 451 444 316 q 467 260 467 218 q 467 97 353 18 q 294 -15 236 -15 l 230 -15 q 94 -15 18 126 q 0 180 0 218 q 17 265 53 265 q 108 265 108 188 q 129 125 173 103 q 209 89 232 89 q 318 89 354 177 q 361 194 361 218 q 361 312 262 343 l 221 347 l 93 347 q 57 347 44 390 l 44 665 q 44 696 89 713 z"}}}
